<?xml version="1.0" encoding="UTF-8" standalone="no"?>
<!-- Created with Inkscape (http://www.inkscape.org/) -->

<svg
   width="16"
   height="16"
   viewBox="0 0 16 16"
   version="1.1"
   id="svg1"
   inkscape:version="1.4 (e7c3feb100, 2024-10-09)"
   sodipodi:docname="logo-var2-ready.svg"
   xmlns:inkscape="http://www.inkscape.org/namespaces/inkscape"
   xmlns:sodipodi="http://sodipodi.sourceforge.net/DTD/sodipodi-0.dtd"
   xmlns="http://www.w3.org/2000/svg"
   xmlns:svg="http://www.w3.org/2000/svg">
  <sodipodi:namedview
     id="namedview1"
     pagecolor="#ffffff"
     bordercolor="#000000"
     borderopacity="0.25"
     inkscape:showpageshadow="2"
     inkscape:pageopacity="0.0"
     inkscape:pagecheckerboard="0"
     inkscape:deskcolor="#d1d1d1"
     inkscape:document-units="px"
     showgrid="true"
     inkscape:zoom="32"
     inkscape:cx="10"
     inkscape:cy="7.140625"
     inkscape:window-width="1920"
     inkscape:window-height="1011"
     inkscape:window-x="0"
     inkscape:window-y="0"
     inkscape:window-maximized="1"
     inkscape:current-layer="layer1"
     showguides="true">
    <inkscape:grid
       id="grid1"
       units="px"
       originx="0"
       originy="0"
       spacingx="1"
       spacingy="1"
       empcolor="#0099e5"
       empopacity="0.30196078"
       color="#0099e5"
       opacity="0.14901961"
       empspacing="4"
       enabled="true"
       visible="true" />
    <sodipodi:guide
       position="-7,8"
       orientation="1,0"
       id="guide7"
       inkscape:locked="false" />
    <sodipodi:guide
       position="-7,8"
       orientation="0,-1"
       id="guide8"
       inkscape:locked="false" />
  </sodipodi:namedview>
  <defs
     id="defs1">
    <inkscape:path-effect
       effect="fill_between_many"
       method="originald"
       linkedpaths="#path6,0,1|"
       id="path-effect6" />
  </defs>
  <g
     inkscape:label="Layer 1"
     inkscape:groupmode="layer"
     id="layer1">
    <path
       id="path17"
       style="stroke-linecap:round;stroke-linejoin:round"
       d="M 8 0 C 7.4243647 0 6.8623491 0.061866785 6.3203125 0.17773438 C 6.0509347 0.23533014 5.8788845 0.49995557 5.9355469 0.76953125 C 5.9931125 1.0398399 6.2590556 1.212178 6.5292969 1.1542969 C 7.0032036 1.0529929 7.4948705 1 8 1 C 11.871916 1 15 4.1280844 15 8 C 15 8.2761424 15.223858 8.5 15.5 8.5 C 15.776142 8.5 16 8.2761424 16 8 C 16 3.5876444 12.412356 0 8 0 z M 4.4589844 0.86523438 C 4.3934974 0.87096038 4.3297817 0.88954427 4.2714844 0.91992188 C 1.730629 2.2605638 0 4.9320507 0 8 C 0 8.2761424 0.22385763 8.5 0.5 8.5 C 0.77614237 8.5 1 8.2761424 1 8 C 1 5.3078235 2.5158682 2.9773084 4.7382812 1.8046875 C 4.9826842 1.6758529 5.0762737 1.3732178 4.9472656 1.1289062 C 4.8852434 1.0116203 4.7791489 0.92379381 4.6523438 0.88476562 C 4.5897884 0.86567128 4.5240946 0.85903552 4.4589844 0.86523438 z M 8 2 C 6.0669264 2 4.3408092 2.9183516 3.2441406 4.3417969 A 0.5 0.5 0 0 0 3.3359375 5.0429688 A 0.5 0.5 0 0 0 4.0371094 4.9511719 C 4.951704 3.7640537 6.3827602 3 8 3 C 8.6577885 3 9.2835555 3.1257095 9.8574219 3.3554688 A 0.5 0.5 0 0 0 10.507812 3.078125 A 0.5 0.5 0 0 0 10.228516 2.4277344 C 9.5390154 2.151679 8.7862493 2 8 2 z M 11.699219 3.4492188 A 0.5 0.5 0 0 0 11.351562 3.609375 A 0.5 0.5 0 0 0 11.380859 4.3164062 C 12.193497 5.0628611 12.757451 6.0740851 12.9375 7.2128906 A 0.5 0.5 0 0 0 13.509766 7.6289062 A 0.5 0.5 0 0 0 13.925781 7.0566406 C 13.709624 5.6894972 13.032684 4.4748369 12.058594 3.5800781 A 0.5 0.5 0 0 0 11.699219 3.4492188 z M 7.5917969 4.0292969 C 7.5585667 4.0268598 7.5245717 4.0267877 7.4902344 4.03125 C 5.5219057 4.281545 3.999987 5.9689686 4 8 C 4.0000119 9.9548211 3.4919979 11.78727 2.5996094 13.376953 C 2.4651856 13.617548 2.5507954 13.921549 2.7910156 14.056641 C 3.0316102 14.191064 3.3356117 14.105451 3.4707031 13.865234 C 4.4443562 12.130788 5.0000129 10.128555 5 8 C 4.9999902 6.4671752 6.140656 5.2111949 7.6171875 5.0234375 C 7.891177 4.9889276 8.0853078 4.7388313 8.0507812 4.4648438 C 8.020611 4.2243465 7.8244082 4.0463562 7.5917969 4.0292969 z M 9.0722656 4.1796875 C 8.8700332 4.1939896 8.6964548 4.328995 8.6328125 4.5214844 C 8.5465447 4.7830234 8.68801 5.0650809 8.9492188 5.1523438 C 10.139455 5.5488816 10.999991 6.6700138 11 8 C 11.000004 8.8636045 10.93971 9.7123213 10.822266 10.542969 C 10.783946 10.815744 10.973455 11.068137 11.246094 11.107422 C 11.519572 11.146922 11.773243 10.957108 11.8125 10.683594 C 11.936479 9.8067535 12.000004 8.9105219 12 8 C 11.999989 6.2377472 10.856277 4.7350181 9.265625 4.2050781 C 9.2034632 4.1840052 9.1377605 4.1753776 9.0722656 4.1796875 z M 8 6 C 6.9013528 6 6 6.9013528 6 8 C 6 8.4941579 5.9715754 8.9814514 5.9179688 9.4609375 C 5.8871244 9.7354913 6.0847994 9.9830223 6.359375 10.013672 C 6.6339288 10.044516 6.8814599 9.8468412 6.9121094 9.5722656 C 6.9698293 9.0559885 7 8.5313241 7 8 C 7 7.441793 7.441793 7 8 7 C 8.558207 7 9 7.441793 9 8 C 9 10.574288 8.3931338 13.003018 7.3144531 15.15625 C 7.1901087 15.403246 7.2898671 15.704271 7.5371094 15.828125 C 7.7846273 15.952192 8.0858422 15.851495 8.2089844 15.603516 C 9.3553421 13.315189 10 10.731624 10 8 C 10 6.9013528 9.0986472 6 8 6 z M 2.5683594 6.0605469 A 0.5 0.5 0 0 0 2.2128906 6.4121094 C 2.0743457 6.9182219 2 7.4512627 2 8 C 2 9.3428925 1.7076362 10.614587 1.1816406 11.757812 A 0.5 0.5 0 0 0 1.4257812 12.419922 A 0.5 0.5 0 0 0 2.0898438 12.175781 C 2.6745978 10.904848 3 9.4887289 3 8 C 3 7.5409177 3.0624437 7.0969444 3.1777344 6.6757812 A 0.5 0.5 0 0 0 2.8261719 6.0625 A 0.5 0.5 0 0 0 2.5683594 6.0605469 z M 13.503906 8.3554688 A 0.5 0.5 0 0 0 12.982422 8.8359375 C 12.912552 10.537688 12.631024 12.182641 12.162109 13.748047 A 0.5 0.5 0 0 0 12.498047 14.371094 A 0.5 0.5 0 0 0 13.119141 14.035156 C 13.611692 12.39084 13.909109 10.662649 13.982422 8.8769531 A 0.5 0.5 0 0 0 13.503906 8.3554688 z M 6.171875 10.537109 C 6.139164 10.536128 6.1066467 10.537473 6.0742188 10.542969 C 5.8748477 10.576509 5.7152943 10.726813 5.6699219 10.923828 C 5.3784668 12.192019 4.902121 13.389729 4.2695312 14.486328 C 4.1311612 14.725756 4.2134192 15.032034 4.453125 15.169922 C 4.6921166 15.306963 4.9969322 15.224862 5.1347656 14.986328 C 5.8160719 13.805279 6.3305034 12.514849 6.6445312 11.148438 C 6.7066013 10.879299 6.5386893 10.610814 6.2695312 10.548828 C 6.2374883 10.541428 6.204585 10.538089 6.171875 10.537109 z M 10.96875 12.021484 C 10.93604 12.019884 10.903654 12.020582 10.871094 12.025391 C 10.67089 12.054881 10.508205 12.20215 10.458984 12.398438 C 10.232055 13.302262 9.9359639 14.177717 9.578125 15.021484 C 9.4698915 15.27605 9.588921 15.570123 9.84375 15.677734 C 10.098316 15.785968 10.392388 15.666944 10.5 15.412109 C 10.877845 14.521168 11.190055 13.595038 11.429688 12.640625 C 11.496137 12.373175 11.333668 12.102378 11.066406 12.035156 C 11.034496 12.027156 11.00147 12.023114 10.96875 12.021484 z " />
  </g>
</svg>
